<?xml version="1.0" encoding="UTF-8"?>
<svg width="100px" height="100px" viewBox="0 0 100 100" version="1.1" xmlns="http://www.w3.org/2000/svg" xmlns:xlink="http://www.w3.org/1999/xlink">
    <!-- Generator: Sketch 55 (78076) - https://sketchapp.com -->
    <title>icon_inspired</title>
    <desc>Created with Sketch.</desc>
    <g id="Community-Landing-Page" stroke="none" stroke-width="1" fill="none" fill-rule="evenodd">
        <g id="community-groups---landing" transform="translate(-670.000000, -953.000000)">
            <g id="empowers-you-to" transform="translate(0.000000, 747.000000)">
                <g id="item-copy-2" transform="translate(542.000000, 206.000000)">
                    <g id="icon_inspired" transform="translate(128.000000, 0.000000)">
                        <circle id="Oval" fill="#4285F4" cx="50" cy="50" r="50"></circle>
                        <path d="M58.8623,53.3453 C61.6813,50.6633 63.2423,47.0283 63.2423,43.1213 C63.2423,35.3343 56.9073,29.0003 49.1213,29.0003 C41.3353,29.0003 35.0003,35.3343 35.0003,43.1213 C35.0003,47.0293 36.5603,50.6643 39.3923,53.3573 L39.7333,53.6693 C42.1223,56.0083 43.4243,59.1063 43.4243,62.4173 C43.4243,63.3573 44.1903,64.1223 45.1313,64.1223 L53.1113,64.1223 C54.0513,64.1223 54.8163,63.3573 54.8163,62.4173 C54.8163,59.1073 56.1193,56.0083 58.4853,53.6923 L58.8623,53.3453 Z M49.1213,27.0003 C58.0103,27.0003 65.2423,34.2323 65.2423,43.1213 C65.2423,47.5823 63.4613,51.7323 60.2273,54.8063 L59.8603,55.1433 C57.9063,57.0583 56.8163,59.6493 56.8163,62.4173 C56.8163,64.4603 55.1543,66.1223 53.1113,66.1223 L45.1313,66.1223 C43.0873,66.1223 41.4253,64.4603 41.4253,62.4173 C41.4253,59.6493 40.3363,57.0573 38.3583,55.1203 L38.0283,54.8193 C34.7813,51.7333 33.0003,47.5833 33.0003,43.1213 C33.0003,34.2323 40.2313,27.0003 49.1213,27.0003 Z M53.3662,72.0001 C53.9192,72.0001 54.3662,72.4481 54.3662,73.0001 C54.3662,73.5521 53.9192,74.0001 53.3662,74.0001 L44.8762,74.0001 C44.3232,74.0001 43.8762,73.5521 43.8762,73.0001 C43.8762,72.4481 44.3232,72.0001 44.8762,72.0001 L53.3662,72.0001 Z M54.4277,68.1739 C54.9807,68.1739 55.4277,68.6219 55.4277,69.1739 C55.4277,69.7259 54.9807,70.1739 54.4277,70.1739 L43.8147,70.1739 C43.2617,70.1739 42.8147,69.7259 42.8147,69.1739 C42.8147,68.6219 43.2617,68.1739 43.8147,68.1739 L54.4277,68.1739 Z" id="Combined-Shape" fill="#FFFFFF"></path>
                    </g>
                </g>
            </g>
        </g>
    </g>
</svg>