<?xml version="1.0" encoding="UTF-8"?>
<svg width="100px" height="100px" viewBox="0 0 100 100" version="1.1" xmlns="http://www.w3.org/2000/svg" xmlns:xlink="http://www.w3.org/1999/xlink">
    <!-- Generator: Sketch 55 (78076) - https://sketchapp.com -->
    <title>icon_new skills</title>
    <desc>Created with Sketch.</desc>
    <g id="Community-Landing-Page" stroke="none" stroke-width="1" fill="none" fill-rule="evenodd">
        <g id="community-groups---landing" transform="translate(-1051.000000, -953.000000)">
            <g id="empowers-you-to" transform="translate(0.000000, 747.000000)">
                <g id="item-copy" transform="translate(926.000000, 206.000000)">
                    <g id="icon_new-skills" transform="translate(125.000000, 0.000000)">
                        <circle id="Oval" fill="#4285F4" cx="50" cy="50" r="50"></circle>
                        <path d="M57.8975,71.7683 C58.0345,71.6183 58.1005,71.4243 58.0845,71.2223 L57.5095,65.4993 C57.4765,65.1123 57.1695,64.8303 56.7945,64.8303 L41.7215,64.8303 C41.3535,64.8303 41.0405,65.1183 41.0085,65.4843 L40.4325,71.2373 C40.4175,71.4253 40.4835,71.6193 40.6205,71.7683 C40.7575,71.9173 40.9445,71.9993 41.1475,71.9993 L57.3705,71.9993 C57.5725,71.9993 57.7595,71.9173 57.8975,71.7683 Z M48.6445,59.0603 C48.4725,60.2203 47.9775,61.6543 46.9915,62.8303 L51.5265,62.8303 C50.5405,61.6543 50.0445,60.2203 49.8735,59.0603 L48.6445,59.0603 Z M56.7945,62.8303 C58.2155,62.8303 59.3795,63.8983 59.5015,65.3143 L60.0755,71.0383 C60.1405,71.8093 59.8825,72.5623 59.3705,73.1213 C58.8575,73.6793 58.1275,73.9993 57.3705,73.9993 L41.1475,73.9993 C40.3895,73.9993 39.6605,73.6793 39.1475,73.1213 C38.6345,72.5633 38.3765,71.8093 38.4415,71.0533 L39.0175,65.3003 C39.1345,63.9223 40.3225,62.8303 41.7215,62.8303 L43.4525,62.8303 C46.6545,61.9563 46.7225,58.2183 46.7235,58.0573 L46.7305,57.0643 L51.7935,57.0603 L51.7935,58.0603 C51.7945,58.2183 51.8635,61.9563 55.0655,62.8303 L56.7945,62.8303 Z M67.503,34.3655 C67.568,33.9965 67.402,33.7325 67.298,33.6075 C67.115,33.3905 66.849,33.2665 66.566,33.2665 L61.556,33.2665 C61.091,38.8445 59.737,43.7415 57.784,47.3785 C62.423,46.3355 66.292,41.2825 67.503,34.3655 Z M49.195,52.0355 C54.909,52.0355 59.736,41.4695 59.736,28.9635 L38.654,28.9995 C38.666,41.4955 43.488,52.0355 49.195,52.0355 Z M31.015,34.3655 C32.214,41.2125 36.017,46.2395 40.592,47.3515 C38.646,43.7175 37.297,38.8305 36.834,33.2665 L31.95,33.2665 C31.668,33.2665 31.402,33.3905 31.22,33.6075 C31.115,33.7325 30.949,33.9965 31.015,34.3655 Z M68.829,32.3215 C69.388,32.9875 69.623,33.8585 69.474,34.7105 C67.974,43.2755 62.643,49.2985 56.429,49.5615 C54.398,52.3875 51.911,54.0355 49.195,54.0355 C46.477,54.0355 43.988,52.3845 41.955,49.5535 C35.799,49.2105 30.533,43.2145 29.044,34.7105 C28.895,33.8575 29.13,32.9865 29.689,32.3215 C30.252,31.6505 31.076,31.2665 31.95,31.2665 L36.707,31.2665 C36.674,30.5085 36.654,29.7415 36.654,28.9635 C36.654,27.8765 37.536,26.9995 38.62,26.9995 L59.771,26.9995 C60.855,26.9995 61.736,27.8765 61.736,28.9535 C61.736,29.7355 61.717,30.5055 61.684,31.2665 L66.566,31.2665 C67.441,31.2665 68.266,31.6515 68.829,32.3215 Z M53.4659,56.4197 L45.0519,56.4197 C44.4989,56.4197 44.0519,55.9717 44.0519,55.4197 C44.0519,54.8677 44.4989,54.4197 45.0519,54.4197 L53.4659,54.4197 C54.0189,54.4197 54.4659,54.8677 54.4659,55.4197 C54.4659,55.9717 54.0189,56.4197 53.4659,56.4197 Z" id="Combined-Shape" fill="#FFFFFF"></path>
                    </g>
                </g>
            </g>
        </g>
    </g>
</svg>