<?xml version="1.0" encoding="UTF-8"?>
<svg width="100px" height="100px" viewBox="0 0 100 100" version="1.1" xmlns="http://www.w3.org/2000/svg" xmlns:xlink="http://www.w3.org/1999/xlink">
    <!-- Generator: Sketch 55 (78076) - https://sketchapp.com -->
    <title>icon_connect</title>
    <desc>Created with Sketch.</desc>
    <g id="Community-Landing-Page" stroke="none" stroke-width="1" fill="none" fill-rule="evenodd">
        <g id="community-groups---landing" transform="translate(-288.000000, -953.000000)">
            <g id="empowers-you-to" transform="translate(0.000000, 747.000000)">
                <g id="item" transform="translate(196.000000, 206.000000)">
                    <g id="icon_connect" transform="translate(92.000000, 0.000000)">
                        <circle id="Oval" fill="#4285F4" cx="50" cy="50" r="50"></circle>
                        <path d="M39.0073,36.9998 C35.7253,36.9998 33.0553,39.6698 33.0553,42.9518 C33.0553,46.2338 35.7253,48.9038 39.0073,48.9038 C42.2893,48.9038 44.9593,46.2338 44.9593,42.9518 C44.9593,39.6698 42.2893,36.9998 39.0073,36.9998 Z M39.0073,50.9038 C34.6223,50.9038 31.0553,47.3358 31.0553,42.9518 C31.0553,38.5668 34.6223,34.9998 39.0073,34.9998 C43.3923,34.9998 46.9593,38.5668 46.9593,42.9518 C46.9593,47.3358 43.3923,50.9038 39.0073,50.9038 Z M60.9936,36.9998 C57.7116,36.9998 55.0416,39.6698 55.0416,42.9518 C55.0416,46.2338 57.7116,48.9038 60.9936,48.9038 C64.2756,48.9038 66.9456,46.2338 66.9456,42.9518 C66.9456,39.6698 64.2756,36.9998 60.9936,36.9998 Z M60.9936,50.9038 C56.6086,50.9038 53.0416,47.3358 53.0416,42.9518 C53.0416,38.5668 56.6086,34.9998 60.9936,34.9998 C65.3786,34.9998 68.9456,38.5668 68.9456,42.9518 C68.9456,47.3358 65.3786,50.9038 60.9936,50.9038 Z M74.475,55.5227 C75.43,56.1647 76,57.2317 76,58.3777 L76,63.0287 C76,63.5807 75.552,64.0287 75,64.0287 C74.448,64.0287 74,63.5807 74,63.0287 L74,58.3777 C74,57.8987 73.761,57.4527 73.36,57.1827 C69.894,54.8537 65.502,53.5697 60.994,53.5697 C57.891,53.5697 54.871,54.1737 52.144,55.3117 C52.257,55.3837 52.377,55.4477 52.489,55.5227 C53.444,56.1647 54.014,57.2317 54.014,58.3777 L54.014,63.0287 C54.014,63.5807 53.566,64.0287 53.014,64.0287 C52.461,64.0287 52.014,63.5807 52.014,63.0287 L52.014,58.3777 C52.014,57.8987 51.774,57.4527 51.372,57.1827 C47.907,54.8537 43.515,53.5697 39.007,53.5697 C34.528,53.5697 30.158,54.8387 26.704,57.1417 C26.263,57.4347 26,57.9267 26,58.4577 L26,63.0287 C26,63.5807 25.552,64.0287 25,64.0287 C24.448,64.0287 24,63.5807 24,63.0287 L24,58.4577 C24,57.2567 24.596,56.1427 25.594,55.4777 C29.373,52.9577 34.137,51.5697 39.007,51.5697 C42.889,51.5697 46.691,52.4627 49.993,54.0957 C53.308,52.4487 57.096,51.5697 60.994,51.5697 C65.896,51.5697 70.683,52.9737 74.475,55.5227 Z" id="Combined-Shape" fill="#FFFFFF"></path>
                    </g>
                </g>
            </g>
        </g>
    </g>
</svg>